<mxfile host="65bd71144e">
    <diagram id="vhpXJWoAf0WkjLF8w9Bu" name="Page-1">
        <mxGraphModel dx="131" dy="223" grid="1" gridSize="10" guides="1" tooltips="1" connect="1" arrows="1" fold="1" page="1" pageScale="1" pageWidth="850" pageHeight="1100" math="0" shadow="0">
            <root>
                <mxCell id="0"/>
                <mxCell id="1" parent="0"/>
                <mxCell id="2" value="" style="rounded=1;whiteSpace=wrap;html=1;arcSize=7;verticalAlign=top;align=left;" vertex="1" parent="1">
                    <mxGeometry x="160" y="40" width="600" height="120" as="geometry"/>
                </mxCell>
                <mxCell id="7" style="edgeStyle=none;html=1;entryX=0;entryY=0.25;entryDx=0;entryDy=0;" edge="1" parent="1" source="4" target="6">
                    <mxGeometry relative="1" as="geometry"/>
                </mxCell>
                <mxCell id="4" value="Player1" style="shape=umlActor;verticalLabelPosition=bottom;verticalAlign=top;html=1;outlineConnect=0;" vertex="1" parent="1">
                    <mxGeometry x="160" y="220" width="30" height="60" as="geometry"/>
                </mxCell>
                <mxCell id="5" value="Player2" style="shape=umlActor;verticalLabelPosition=bottom;verticalAlign=top;html=1;outlineConnect=0;" vertex="1" parent="1">
                    <mxGeometry x="570" y="220" width="30" height="60" as="geometry"/>
                </mxCell>
                <mxCell id="8" style="edgeStyle=none;html=1;exitX=1;exitY=0.25;exitDx=0;exitDy=0;" edge="1" parent="1" source="6" target="5">
                    <mxGeometry relative="1" as="geometry"/>
                </mxCell>
                <mxCell id="6" value="Horizon" style="image;html=1;image=img/lib/clip_art/computers/Server_128x128.png" vertex="1" parent="1">
                    <mxGeometry x="340" y="230" width="80" height="80" as="geometry"/>
                </mxCell>
                <mxCell id="15" style="edgeStyle=none;html=1;entryX=0;entryY=0.5;entryDx=0;entryDy=0;" edge="1" parent="1" source="9" target="10">
                    <mxGeometry relative="1" as="geometry"/>
                </mxCell>
                <mxCell id="16" style="edgeStyle=none;html=1;entryX=0;entryY=0.5;entryDx=0;entryDy=0;" edge="1" parent="1" source="9" target="11">
                    <mxGeometry relative="1" as="geometry">
                        <Array as="points">
                            <mxPoint x="180" y="420"/>
                            <mxPoint x="180" y="460"/>
                        </Array>
                    </mxGeometry>
                </mxCell>
                <mxCell id="27" style="edgeStyle=none;html=1;entryX=0;entryY=0.5;entryDx=0;entryDy=0;" edge="1" parent="1" source="9" target="26">
                    <mxGeometry relative="1" as="geometry">
                        <Array as="points">
                            <mxPoint x="180" y="420"/>
                            <mxPoint x="180" y="500"/>
                        </Array>
                    </mxGeometry>
                </mxCell>
                <mxCell id="9" value="W/S - Val (-1 - 1)&lt;br&gt;&amp;nbsp;A/D - Val (-1 - 1)&lt;br&gt;" style="rounded=1;whiteSpace=wrap;html=1;verticalAlign=top;align=left;arcSize=3;" vertex="1" parent="1">
                    <mxGeometry x="10" y="400" width="120" height="40" as="geometry"/>
                </mxCell>
                <mxCell id="10" value="W/S - Val (-1 - 1)&lt;br&gt;&amp;nbsp;A/D - Val (-1 - 1)&lt;br&gt;" style="rounded=1;whiteSpace=wrap;html=1;verticalAlign=top;align=left;arcSize=3;" vertex="1" parent="1">
                    <mxGeometry x="230" y="400" width="120" height="40" as="geometry"/>
                </mxCell>
                <mxCell id="11" value="Pos (x,y,z)&lt;br&gt;Accelleration (f64)" style="rounded=1;whiteSpace=wrap;html=1;verticalAlign=top;align=left;arcSize=3;" vertex="1" parent="1">
                    <mxGeometry x="230" y="440" width="120" height="40" as="geometry"/>
                </mxCell>
                <mxCell id="17" style="edgeStyle=none;html=1;entryX=0;entryY=0.5;entryDx=0;entryDy=0;" edge="1" parent="1" source="12" target="14">
                    <mxGeometry relative="1" as="geometry"/>
                </mxCell>
                <mxCell id="18" style="edgeStyle=none;html=1;entryX=0;entryY=0.5;entryDx=0;entryDy=0;" edge="1" parent="1" source="12" target="13">
                    <mxGeometry relative="1" as="geometry">
                        <Array as="points">
                            <mxPoint x="180" y="550"/>
                            <mxPoint x="180" y="590"/>
                        </Array>
                    </mxGeometry>
                </mxCell>
                <mxCell id="29" style="edgeStyle=none;html=1;entryX=0;entryY=0.5;entryDx=0;entryDy=0;" edge="1" parent="1" source="12" target="28">
                    <mxGeometry relative="1" as="geometry">
                        <Array as="points">
                            <mxPoint x="180" y="550"/>
                            <mxPoint x="180" y="630"/>
                        </Array>
                    </mxGeometry>
                </mxCell>
                <mxCell id="12" value="Pos (x,y,z)&lt;br&gt;Accelleration (f64)" style="rounded=1;whiteSpace=wrap;html=1;verticalAlign=top;align=left;arcSize=3;" vertex="1" parent="1">
                    <mxGeometry x="10" y="530" width="120" height="40" as="geometry"/>
                </mxCell>
                <mxCell id="13" value="Pos (x,y,z)&lt;br&gt;Accelleration (f64)" style="rounded=1;whiteSpace=wrap;html=1;verticalAlign=top;align=left;arcSize=3;" vertex="1" parent="1">
                    <mxGeometry x="230" y="570" width="120" height="40" as="geometry"/>
                </mxCell>
                <mxCell id="14" value="W/S - Val (-1 - 1)&lt;br&gt;&amp;nbsp;A/D - Val (-1 - 1)&lt;br&gt;" style="rounded=1;whiteSpace=wrap;html=1;verticalAlign=top;align=left;arcSize=3;" vertex="1" parent="1">
                    <mxGeometry x="230" y="530" width="120" height="40" as="geometry"/>
                </mxCell>
                <mxCell id="19" value="Sent to server" style="text;html=1;strokeColor=none;fillColor=none;align=center;verticalAlign=middle;whiteSpace=wrap;rounded=0;" vertex="1" parent="1">
                    <mxGeometry x="23.75" y="370" width="90" height="30" as="geometry"/>
                </mxCell>
                <mxCell id="20" value="Sent to other clients" style="text;html=1;strokeColor=none;fillColor=none;align=center;verticalAlign=middle;whiteSpace=wrap;rounded=0;" vertex="1" parent="1">
                    <mxGeometry x="232.5" y="370" width="115" height="30" as="geometry"/>
                </mxCell>
                <mxCell id="21" style="edgeStyle=none;html=1;entryX=0;entryY=0.5;entryDx=0;entryDy=0;" edge="1" parent="1" source="23" target="25">
                    <mxGeometry relative="1" as="geometry"/>
                </mxCell>
                <mxCell id="22" style="edgeStyle=none;html=1;entryX=0;entryY=0.5;entryDx=0;entryDy=0;" edge="1" parent="1" source="23" target="24">
                    <mxGeometry relative="1" as="geometry">
                        <Array as="points">
                            <mxPoint x="180" y="680"/>
                            <mxPoint x="180" y="720"/>
                        </Array>
                    </mxGeometry>
                </mxCell>
                <mxCell id="31" style="edgeStyle=none;html=1;entryX=0;entryY=0.5;entryDx=0;entryDy=0;" edge="1" parent="1" source="23" target="30">
                    <mxGeometry relative="1" as="geometry">
                        <Array as="points">
                            <mxPoint x="180" y="680"/>
                            <mxPoint x="180" y="760"/>
                        </Array>
                    </mxGeometry>
                </mxCell>
                <mxCell id="23" value="Pos (x,y,z)" style="rounded=1;whiteSpace=wrap;html=1;verticalAlign=top;align=left;arcSize=3;" vertex="1" parent="1">
                    <mxGeometry x="10" y="660" width="120" height="40" as="geometry"/>
                </mxCell>
                <mxCell id="24" value="Pos (x,y,z)&lt;br&gt;Accelleration (f64)" style="rounded=1;whiteSpace=wrap;html=1;verticalAlign=top;align=left;arcSize=3;" vertex="1" parent="1">
                    <mxGeometry x="230" y="700" width="120" height="40" as="geometry"/>
                </mxCell>
                <mxCell id="25" value="W/S - Val (-1 - 1)&lt;br&gt;&amp;nbsp;A/D - Val (-1 - 1)&lt;br&gt;" style="rounded=1;whiteSpace=wrap;html=1;verticalAlign=top;align=left;arcSize=3;" vertex="1" parent="1">
                    <mxGeometry x="230" y="660" width="120" height="40" as="geometry"/>
                </mxCell>
                <mxCell id="26" value="Pos (x,y,z)" style="rounded=1;whiteSpace=wrap;html=1;verticalAlign=top;align=left;arcSize=3;" vertex="1" parent="1">
                    <mxGeometry x="230" y="480" width="120" height="40" as="geometry"/>
                </mxCell>
                <mxCell id="28" value="Pos (x,y,z)" style="rounded=1;whiteSpace=wrap;html=1;verticalAlign=top;align=left;arcSize=3;" vertex="1" parent="1">
                    <mxGeometry x="230" y="610" width="120" height="40" as="geometry"/>
                </mxCell>
                <mxCell id="30" value="Pos (x,y,z)" style="rounded=1;whiteSpace=wrap;html=1;verticalAlign=top;align=left;arcSize=3;" vertex="1" parent="1">
                    <mxGeometry x="230" y="740" width="120" height="40" as="geometry"/>
                </mxCell>
                <mxCell id="53" value="" style="group" vertex="1" connectable="0" parent="1">
                    <mxGeometry x="360" y="400" width="840" height="120" as="geometry"/>
                </mxCell>
                <mxCell id="43" value="Pros:&amp;nbsp; Simplistic, easy to implement&lt;br&gt;Cons: High bandwidth, high polling, hard on clients, multiple replication systems, no latency tollerance, no high ping protection at all (no prediction possible)" style="text;html=1;strokeColor=none;fillColor=none;align=left;verticalAlign=top;whiteSpace=wrap;rounded=0;" vertex="1" parent="53">
                    <mxGeometry width="840" height="40" as="geometry"/>
                </mxCell>
                <mxCell id="44" value="Pros:&amp;nbsp; Low bandwidth, latency tollerant, single replication system for all actors&lt;br&gt;Cons: Requires players to be physics actors" style="text;html=1;strokeColor=none;fillColor=none;align=left;verticalAlign=top;whiteSpace=wrap;rounded=0;" vertex="1" parent="53">
                    <mxGeometry y="40" width="840" height="40" as="geometry"/>
                </mxCell>
                <mxCell id="45" value="Pros:&amp;nbsp; Low bandwidth, lowest poll rate, single replication system for all actors&lt;br&gt;Cons: High likelyhood of rubberbanding during prediction, requires players to be physics actors" style="text;html=1;strokeColor=none;fillColor=none;align=left;verticalAlign=top;whiteSpace=wrap;rounded=0;" vertex="1" parent="53">
                    <mxGeometry y="80" width="840" height="40" as="geometry"/>
                </mxCell>
                <mxCell id="54" value="" style="rounded=1;whiteSpace=wrap;html=1;fillColor=none;strokeColor=#FFFF33;strokeWidth=3;arcSize=4;" vertex="1" parent="1">
                    <mxGeometry x="230" y="400" width="120" height="80" as="geometry"/>
                </mxCell>
                <mxCell id="55" value="" style="verticalLabelPosition=bottom;verticalAlign=top;html=1;shape=mxgraph.basic.no_symbol;strokeColor=none;strokeWidth=3;fillColor=#990000;" vertex="1" parent="1">
                    <mxGeometry x="272.5" y="482.5" width="35" height="35" as="geometry"/>
                </mxCell>
            </root>
        </mxGraphModel>
    </diagram>
</mxfile>